<svg width="111" height="58" viewBox="0 0 111 58" fill="none" xmlns="http://www.w3.org/2000/svg">
<path d="M95.3906 0H15.6094H0V15.6094V42.0586V57.668H15.6094H95.3906H111V42.0586V15.6094V0H95.3906ZM106.664 42.709C101.172 44.2988 97.6308 47.8399 96.041 53.332H14.959C13.3692 47.8399 9.82805 44.2988 4.33594 42.709V14.959C9.82805 13.369 13.3692 9.82805 14.959 4.33594H96.041C97.631 9.68367 101.172 13.2246 106.664 14.959V42.709Z" fill="#CC3366"/>
<path d="M55.5 6.7207C50.0079 6.7207 45.3105 8.88867 41.4082 13.2246C37.5059 17.5605 35.5547 22.7637 35.5547 28.834C35.5547 34.9043 37.5059 40.1074 41.4082 44.4434C45.3105 48.7793 50.0079 50.9473 55.5 50.9473C60.9921 50.9473 65.6895 48.7793 69.5918 44.4434C73.4941 40.1074 75.4453 34.9043 75.4453 28.834C75.4453 22.7637 73.4941 17.5605 69.5918 13.2246C65.6895 8.88867 60.9921 6.7207 55.5 6.7207ZM63.9551 41.4082C62.6543 42.5644 60.5585 43.3594 57.668 43.793V46.6113H53.332V43.793C50.5859 43.3594 48.6347 42.709 47.4785 41.8418C45.4552 40.252 44.4434 38.1562 44.4434 35.5547H49.8633C50.0079 35.5547 50.1163 35.6993 50.1885 35.9883C50.2607 36.2773 50.3691 36.6387 50.5137 37.0723C50.6585 37.5059 50.8029 37.7948 50.9473 37.9395C51.2363 38.2287 52.0312 38.5177 53.332 38.8066V31.4355C50.5859 30.713 48.7071 29.9902 47.6953 29.2676C45.8163 27.9668 44.877 26.0156 44.877 23.4141C44.877 20.8125 45.8163 18.7167 47.6953 17.127C48.9961 15.8262 50.8751 15.0312 53.332 14.7422V11.0566H57.668V14.959C59.2577 15.248 60.9921 16.043 62.8711 17.3438C63.7383 17.9219 64.3525 18.4277 64.7139 18.8613C65.0753 19.2949 65.4365 19.9815 65.7979 20.9209C66.1593 21.8603 66.412 23.0527 66.5566 24.498H60.9199C60.7753 22.6189 59.9081 21.3181 58.3184 20.5957L57.668 20.1621V27.0996L59.6191 27.3164C62.2207 28.0392 63.9551 28.762 64.8223 29.4844C66.412 30.6406 67.207 32.5195 67.207 35.1211C67.207 37.5781 66.123 39.6738 63.9551 41.4082Z" fill="#CC3366"/>
<path d="M60.2695 33.3867C59.4023 32.9531 58.5352 32.6641 57.668 32.5195V39.0234L58.21 38.915C58.5714 38.8428 58.8241 38.8066 58.9688 38.8066C60.5585 38.2284 61.3535 37.1445 61.3535 35.5547C61.3535 34.6875 60.9921 33.9649 60.2695 33.3867Z" fill="#CC3366"/>
<path d="M50.2969 22.9805C50.2969 23.8477 50.7305 24.5702 51.5977 25.1484C51.8866 25.293 52.4648 25.5098 53.332 25.7988V19.7285C52.6094 19.8731 52.0312 20.0899 51.5977 20.3789C50.7305 20.9571 50.2969 21.8243 50.2969 22.9805Z" fill="#CC3366"/>
</svg>
