<svg width="89" height="88" viewBox="0 0 89 88" fill="none" xmlns="http://www.w3.org/2000/svg">
<g clip-path="url(#clip0_124_27)">
<path d="M16.4307 51.6718C16.4307 47.8085 18.5763 44.6769 21.223 44.6769H30.8076C33.4543 44.6769 35.5999 47.8085 35.5999 51.6718V79.6513C35.5999 83.5146 33.4543 86.6462 30.8076 86.6462H21.223C18.5763 86.6462 16.4307 83.5146 16.4307 79.6513V51.6718Z" stroke="#CC3366" stroke-width="5" stroke-linecap="round" stroke-linejoin="round"/>
<path d="M35.6001 65.3231C35.6001 61.3975 37.8989 58.2154 40.7347 58.2154H51.0039C53.8398 58.2154 56.1386 61.3975 56.1386 65.3231V79.5385C56.1386 83.464 53.8398 86.6462 51.0039 86.6462H40.7347C37.8989 86.6462 35.6001 83.464 35.6001 79.5385V65.3231Z" stroke="#CC3366" stroke-width="5" stroke-linecap="round" stroke-linejoin="round"/>
<path d="M56.1384 71.7538C56.1384 68.0152 58.2839 64.9846 60.9307 64.9846H70.5153C73.1621 64.9846 75.3077 68.0152 75.3077 71.7538V78.5231C75.3077 82.2617 73.1621 85.2923 70.5153 85.2923H60.9307C58.2839 85.2923 56.1384 82.2617 56.1384 78.5231V71.7538Z" stroke="#CC3366" stroke-width="5" stroke-linecap="round" stroke-linejoin="round"/>
<path d="M8.21533 85.2923H87.6307" stroke="#CC3366" stroke-width="5" stroke-linecap="round" stroke-linejoin="round"/>
<path d="M31.7952 21.6615C32.2038 23.9261 33.8834 26.6183 36.7101 29.5392C39.5369 32.4602 43.4384 35.5353 48.1265 38.5374C52.8147 41.5395 58.1692 44.3918 63.7954 46.8837C69.4212 49.3753 75.1746 51.4431 80.6304 52.9339M76.477 45.552L81.5475 53.2955L69.6976 55.028" stroke="#CC3366" stroke-width="4" stroke-linecap="round" stroke-linejoin="round"/>
</g>
<defs>
<clipPath id="clip0_124_27">
<rect width="89" height="88" fill="white"/>
</clipPath>
</defs>
</svg>
