<svg width="80" height="86" viewBox="0 0 80 86" fill="none" xmlns="http://www.w3.org/2000/svg">
<path fill-rule="evenodd" clip-rule="evenodd" d="M37.505 21.5H35.01C33.63 21.5 32.51 22.704 32.51 24.1875C32.51 25.671 33.63 26.875 35.01 26.875H37.515L37.52 29.5679C37.5225 31.0514 38.645 32.2527 40.025 32.25C41.405 32.2473 42.5225 31.0406 42.52 29.5571L42.515 26.875H45.01C46.39 26.875 47.51 25.671 47.51 24.1875C47.51 22.704 46.39 21.5 45.01 21.5H42.505L42.5 18.8071C42.4975 17.3236 41.375 16.1223 39.995 16.125C38.615 16.1277 37.4975 17.3344 37.5 18.8179L37.505 21.5Z" fill="#CC3366"/>
<path fill-rule="evenodd" clip-rule="evenodd" d="M65 24.1875V13.4375C65 11.2983 64.21 9.24769 62.8025 7.73731C61.3975 6.22425 59.49 5.375 57.5 5.375C48.8425 5.375 31.1575 5.375 22.5 5.375C20.51 5.375 18.6025 6.22425 17.1975 7.73731C15.79 9.24769 15 11.2983 15 13.4375V72.5625C15 74.7018 15.79 76.7523 17.1975 78.2627C18.6025 79.7757 20.51 80.625 22.5 80.625C29 80.625 48.29 80.625 57.4975 80.625C58.8775 80.625 59.9975 79.421 59.9975 77.9375C59.9975 76.454 58.8775 75.25 57.4975 75.25C48.29 75.25 29 75.25 22.5 75.25C21.8375 75.25 21.2 74.9678 20.7325 74.4626C20.2625 73.96 20 73.2747 20 72.5625V13.4375C20 12.7253 20.2625 12.04 20.7325 11.5374C21.2 11.0322 21.8375 10.75 22.5 10.75H57.5C58.1625 10.75 58.8 11.0322 59.2675 11.5374C59.7375 12.04 60 12.7253 60 13.4375V24.1875C60 25.671 61.12 26.875 62.5 26.875C63.88 26.875 65 25.671 65 24.1875Z" fill="#CC3366"/>
<path fill-rule="evenodd" clip-rule="evenodd" d="M59.955 38.1787C57.0575 39.2913 54.98 42.2717 54.98 45.7709C54.98 50.2294 58.3125 53.7984 62.46 53.7984C63.8425 53.7984 64.98 55.0024 64.98 56.4886C64.98 57.9721 63.86 59.1761 62.48 59.1761C61.1 59.1761 59.98 57.9721 59.98 56.4886C59.98 55.0051 58.86 53.8011 57.48 53.8011C56.1 53.8011 54.98 55.0051 54.98 56.4886C54.98 59.9877 57.06 62.9709 59.9625 64.0835L59.95 67.209C59.945 68.6925 61.06 69.9019 62.44 69.9073C63.82 69.9154 64.945 68.7141 64.95 67.2305L64.9625 64.0969C67.8825 62.995 69.98 60.0039 69.98 56.4886C69.98 52.0408 66.595 48.4234 62.46 48.4234C61.0875 48.4234 59.98 47.2463 59.98 45.7709C59.98 44.2874 61.1 43.0834 62.48 43.0834C63.855 43.0834 64.9725 44.2793 64.98 45.7547V45.7897C64.99 47.2624 66.105 48.4584 67.48 48.4584C68.86 48.4584 69.98 47.2544 69.98 45.7709C69.98 42.2529 67.88 39.259 64.955 38.1599L64.98 34.9913C64.99 33.5078 63.88 32.2957 62.5 32.2823C61.12 32.2715 59.99 33.4675 59.98 34.9483L59.955 38.1787Z" fill="#CC3366"/>
<path fill-rule="evenodd" clip-rule="evenodd" d="M27.5 45.7388H47.5C48.88 45.7388 50 44.5348 50 43.0513C50 41.5678 48.88 40.3638 47.5 40.3638H27.5C26.12 40.3638 25 41.5678 25 43.0513C25 44.5348 26.12 45.7388 27.5 45.7388Z" fill="#CC3366"/>
<path fill-rule="evenodd" clip-rule="evenodd" d="M27.5 56.521H47.5C48.88 56.521 50 55.317 50 53.8335C50 52.35 48.88 51.146 47.5 51.146H27.5C26.12 51.146 25 52.35 25 53.8335C25 55.317 26.12 56.521 27.5 56.521Z" fill="#CC3366"/>
<path fill-rule="evenodd" clip-rule="evenodd" d="M27.5 67.2197H47.5C48.88 67.2197 50 66.0157 50 64.5322C50 63.0487 48.88 61.8447 47.5 61.8447H27.5C26.12 61.8447 25 63.0487 25 64.5322C25 66.0157 26.12 67.2197 27.5 67.2197Z" fill="#CC3366"/>
</svg>
