<svg width="139" height="141" viewBox="0 0 139 141" fill="none" xmlns="http://www.w3.org/2000/svg">
<path d="M81.4827 84.546C81.4827 79.9213 83.9862 76.1724 87.0746 76.1724H98.2585C101.347 76.1724 103.85 79.9213 103.85 84.546V118.04C103.85 122.665 101.347 126.414 98.2585 126.414H87.0746C83.9862 126.414 81.4827 122.665 81.4827 118.04V84.546Z" stroke="#CC3366" stroke-width="5" stroke-linecap="round" stroke-linejoin="round"/>
<path d="M57.5173 100.888C57.5173 96.1886 60.1997 92.3793 63.5087 92.3793H75.4915C78.8005 92.3793 81.4829 96.1886 81.4829 100.888V117.905C81.4829 122.604 78.8005 126.414 75.4915 126.414H63.5087C60.1997 126.414 57.5173 122.604 57.5173 117.905V100.888Z" stroke="#CC3366" stroke-width="5" stroke-linecap="round" stroke-linejoin="round"/>
<path d="M35.1494 110.207C35.1494 105.731 37.653 102.103 40.7414 102.103H51.9253C55.0136 102.103 57.5172 105.731 57.5172 110.207V118.31C57.5172 122.786 55.0136 126.414 51.9253 126.414H40.7414C37.653 126.414 35.1494 122.786 35.1494 118.31V110.207Z" stroke="#CC3366" stroke-width="5" stroke-linecap="round" stroke-linejoin="round"/>
<path d="M22.3679 126.414H115.035" stroke="#CC3366" stroke-width="5" stroke-linecap="round" stroke-linejoin="round"/>
<path d="M22.0996 86.0671C25.5437 87.1392 29.9941 87.0396 35.1223 85.7763C40.2504 84.5124 45.9252 82.117 51.7271 78.7661C57.5291 75.4157 63.3103 71.1956 68.6436 66.418C73.9768 61.6405 78.7261 56.4273 82.5401 51.1638M70.4716 50.916L83.3439 50.3543L82.3524 65.1724" stroke="#CC3366" stroke-width="4" stroke-linecap="round" stroke-linejoin="round"/>
</svg>
