<svg width="65" height="64" viewBox="0 0 65 64" fill="none" xmlns="http://www.w3.org/2000/svg">
<path fill-rule="evenodd" clip-rule="evenodd" d="M29.41 0.0732445C15.8838 0.984189 4.43927 10.4582 0.995372 23.5857C-0.0598755 27.6035 -0.290081 32.3597 0.371829 36.4926C1.20641 41.8049 3.47997 46.9447 6.87588 51.231C7.29796 51.7584 8.39157 52.9474 9.32209 53.8776C11.4613 56.0159 13.2649 57.4064 15.7398 58.8447C21.889 62.4023 29.0454 63.7639 36.1922 62.7283C39.4347 62.2584 42.9649 61.1078 46.0059 59.5447C47.3681 58.8447 47.8957 58.4516 47.8957 58.1255C47.8957 57.7516 47.5024 57.3297 47.157 57.3201C47.0419 57.3201 46.2937 57.6653 45.4783 58.0776C43.7707 58.9694 42.5812 59.4776 40.9599 60.0146C35.3864 61.8653 29.1797 62.0283 23.5774 60.4749C16.6032 58.5379 10.646 54.242 6.59768 48.2392C6.25234 47.731 5.98373 47.2995 6.00293 47.2899C6.0413 47.2515 8.45873 48.0187 14.6558 50.0324C19.6346 51.6529 21.4957 52.2379 21.6396 52.2379C21.793 52.2379 21.8027 51.7776 21.8027 46.0049V39.772L20.2102 34.8145C19.3277 32.0816 18.4834 29.4254 18.3204 28.9076C18.1477 28.3418 17.9559 27.9295 17.86 27.8816C17.5242 27.6994 15.7974 27.5747 14.464 27.6419C8.996 27.8912 3.9021 29.1474 1.97386 30.72C1.75323 30.9022 1.56136 31.046 1.54219 31.046C1.52299 31.046 1.54219 30.4515 1.58055 29.7322C2.03142 21.3514 6.17561 13.3733 12.8428 8.07053C13.3416 7.66777 13.7733 7.36092 13.7829 7.38011C13.8021 7.38969 13.8405 8.31983 13.8596 9.44173L13.9076 11.465L13.6102 11.5226C13.1401 11.6185 12.3535 12.2034 11.9314 12.75C11.5189 13.3062 10.7707 14.735 10.7707 14.9843C10.7707 15.1185 10.8954 15.1377 11.7012 15.1281C12.9866 15.1089 12.9483 15.0993 13.0538 15.4062C13.1977 15.809 13.7637 16.1253 14.2433 16.0583C14.675 16.0007 15.1355 15.6267 15.2218 15.2623C15.2794 15.0322 15.289 15.0322 16.5745 15.0322H17.8695L17.5721 14.4281C16.9007 13.1048 15.9317 12.002 15.1259 11.6377C14.7422 11.4747 14.7326 11.4555 14.6655 10.8897C14.6367 10.5637 14.6079 9.49928 14.6079 8.52121L14.6175 6.73764L15.0684 6.4404C15.9701 5.83627 17.4379 5.02118 18.6753 4.43625C19.932 3.83212 21.1024 3.37186 21.1695 3.43898C21.1887 3.45818 21.2271 6.77599 21.2367 10.8034L21.275 18.1294L20.8913 18.2445C19.5866 18.6281 18.3491 19.9705 17.5817 21.8308C17.4282 22.224 17.2939 22.55 17.2939 22.5692C17.2939 22.5884 17.9654 22.6075 18.7809 22.6075H20.2678V22.8472C20.2678 23.4226 20.8242 24.0075 21.4573 24.113C22.1672 24.2281 22.973 23.6528 23.1073 22.9431L23.1649 22.6075H24.6422C25.4577 22.6075 26.1196 22.5884 26.1196 22.5596C26.1196 22.5308 25.9853 22.2336 25.8222 21.9075C25.0068 20.2965 23.8844 18.9637 22.9347 18.4842C22.6085 18.3308 22.292 18.1966 22.2344 18.1966C22.0617 18.1966 21.9946 15.7418 21.9946 9.03898V3.07454L22.8388 2.82524C25.9181 1.89514 28.2588 1.57866 31.9905 1.56908C34.8684 1.55947 34.8876 1.54989 34.8876 0.888251C34.8876 0.284122 34.6478 0.159492 33.3911 0.0635925C32.1152 -0.0227285 30.8969 -0.0226547 29.41 0.0732445ZM15.0588 12.0212C15.5288 12.2418 16.3922 13.1336 16.7855 13.7952C17.3323 14.7253 17.4474 14.6486 15.5097 14.6582C14.5599 14.6582 13.2457 14.6774 12.5742 14.7062C11.4326 14.7541 11.3462 14.7445 11.3462 14.5815C11.3462 14.2747 12.0466 13.1815 12.5934 12.6349C13.4088 11.8103 14.1858 11.6185 15.0588 12.0212ZM14.9917 15.1761C14.9917 15.2623 14.8861 15.4349 14.7518 15.5596C14.5791 15.7418 14.4161 15.7993 14.0899 15.7993C13.7349 15.7993 13.6294 15.7514 13.4184 15.5021C13.2841 15.339 13.1881 15.1761 13.217 15.1281C13.2362 15.0897 13.6486 15.0514 14.1283 15.0418C14.8573 15.0226 14.9917 15.0514 14.9917 15.1761ZM22.8003 18.8487C23.6253 19.2994 24.6806 20.5267 25.3425 21.8117L25.544 22.224H21.7067C19.5963 22.224 17.8695 22.1952 17.8695 22.1473C17.8695 21.9651 18.6753 20.5363 19.059 20.0281C19.8457 19.0021 20.5844 18.5993 21.6492 18.5993C22.196 18.5993 22.4166 18.6473 22.8003 18.8487ZM22.8579 22.9815C22.8579 23.2692 22.3975 23.7391 22.0137 23.8446C21.4094 24.0172 20.8146 23.7487 20.5939 23.2117C20.5172 23.0391 20.4596 22.8761 20.4596 22.8473C20.4596 22.8185 20.9969 22.7994 21.6588 22.7994C22.7812 22.7994 22.8579 22.8089 22.8579 22.9815ZM18.589 33.6829C19.5483 36.32 20.3253 38.4871 20.3157 38.5063C20.287 38.535 19.8361 38.3816 14.1762 36.3008C12.5934 35.7254 11.0201 35.1501 10.6748 35.0255C10.3294 34.9008 9.84012 34.709 9.57155 34.6131C9.31252 34.5172 7.63377 33.9035 5.84946 33.2515C4.07473 32.5994 2.62619 32.0241 2.64536 31.9762C2.71251 31.7748 4.34334 30.9405 5.47528 30.5186C7.38432 29.809 10.3006 29.1665 12.5453 28.946C13.025 28.898 14.1858 28.8693 15.1259 28.8789L16.843 28.8885L18.589 33.6829ZM4.15149 34.1145C4.2858 34.1528 5.44653 34.5844 6.7416 35.0734C8.03668 35.5528 9.97448 36.272 11.0585 36.6748C19.2318 39.6762 20.3062 40.0789 20.4213 40.1652C20.546 40.2707 20.6036 43.0899 20.4788 43.1666C20.4309 43.1953 19.9416 43.0515 19.3949 42.8406C18.8481 42.6392 17.601 42.1789 16.6224 41.8337C15.644 41.4789 14.3969 41.0282 13.8405 40.8268C12.2288 40.2323 3.06748 36.9241 2.83724 36.8569C2.68376 36.809 2.58782 36.6652 2.51108 36.3871C2.36719 35.8597 2.2521 34.3829 2.30963 33.8651L2.34799 33.4528L3.13462 33.7501C3.55675 33.9035 4.01719 34.0761 4.15149 34.1145ZM5.68637 38.9186C8.05586 39.7816 13.0058 41.5844 15.6631 42.5529C16.2195 42.7542 17.5242 43.2337 18.5698 43.6173L20.4596 44.3077V45.8899C20.4596 47.3474 20.4501 47.4625 20.2966 47.4146C20.1527 47.3762 4.30498 41.6323 3.85411 41.4501C3.75817 41.4214 3.67185 41.2967 3.64306 41.1816C3.61427 41.0666 3.45118 40.52 3.29771 39.9734C3.12504 39.4077 3.00032 38.746 3.00032 38.4583C3.00032 38.1802 3.00995 37.9501 3.02911 37.9501C3.04832 37.9501 4.23783 38.3816 5.68637 38.9186ZM5.59043 42.9844C9.56194 44.3652 10.6651 44.7584 12.3056 45.3241C13.332 45.6885 15.5672 46.4653 17.2747 47.0598L20.3637 48.1433V49.6584V51.1735L17.5625 50.2146C16.0181 49.6776 13.5046 48.8146 11.9698 48.2872C10.4445 47.7598 8.47795 47.0885 7.60496 46.8008C6.32913 46.3694 5.97414 46.216 5.7631 45.9762C5.23549 45.3913 4.57359 43.8954 4.38171 42.8789C4.32414 42.5529 4.33373 42.5241 4.49682 42.5913C4.59276 42.6296 5.09158 42.8118 5.59043 42.9844Z" fill="#CC3366"/>
<path fill-rule="evenodd" clip-rule="evenodd" d="M14.0705 29.8951C13.7251 30.0293 13.4565 30.4608 13.4565 30.8732C13.4565 31.6882 14.435 32.1101 15.0682 31.5731C15.4423 31.2663 15.5286 30.8827 15.3368 30.432C15.2312 30.1827 15.0874 30.0389 14.8571 29.943C14.4734 29.78 14.3583 29.78 14.0705 29.8951Z" fill="#CC3366"/>
<path fill-rule="evenodd" clip-rule="evenodd" d="M9.27413 31.0459C8.92878 31.1802 8.66016 31.6117 8.66016 32.024C8.66016 32.8487 9.6291 33.2706 10.2718 32.724C10.8282 32.2637 10.7131 31.3624 10.0608 31.0939C9.67704 30.9309 9.56194 30.9309 9.27413 31.0459Z" fill="#CC3366"/>
<path fill-rule="evenodd" clip-rule="evenodd" d="M14.7516 32.7533C13.7539 33.0793 13.6485 34.393 14.5886 34.8438C15.5766 35.3136 16.6127 34.067 15.9412 33.2136C15.5958 32.7821 15.1833 32.6191 14.7516 32.7533Z" fill="#CC3366"/>
<path fill-rule="evenodd" clip-rule="evenodd" d="M39.2621 6.20993C37.593 6.4113 36.2116 7.05379 35.0796 8.17569C34.1107 9.1346 33.6023 10.0935 33.3049 11.5319C33.1226 12.4045 33.113 12.5867 33.2089 13.6607C33.3528 15.1853 33.6023 16.1154 34.1394 17.2182C35.4825 19.9607 38.2644 20.9004 41.2959 19.6442C43.8955 18.5511 45.7662 15.9141 45.4017 13.862C45.2578 13.0757 45.0659 12.6058 44.5767 11.8675C43.838 10.7456 43.1953 10.1607 42.0825 9.64282C40.8642 9.06751 39.4636 9.18256 38.3508 9.94968C37.6217 10.4579 36.979 11.4552 36.7775 12.4237C36.624 13.1428 36.6432 13.4881 36.8638 14.1977C37.0941 14.9264 37.6793 15.6552 38.3892 16.0676C38.7633 16.2881 38.936 16.3264 39.5499 16.3264C40.1447 16.3264 40.3749 16.2785 40.8258 16.0484C41.622 15.6648 41.9002 15.2141 41.9002 14.3223C41.9002 13.5073 41.5644 12.7018 41.2095 12.6538C40.8641 12.6059 40.7874 12.9032 40.9888 13.4977C41.4109 14.7059 41.056 15.3675 39.8761 15.5593C39.2525 15.6552 38.7249 15.4634 38.1973 14.936C37.0845 13.8237 37.2572 11.9826 38.581 10.7839C39.1662 10.2661 39.7513 10.0456 40.5668 10.0456C42.2168 10.0456 44.2889 11.9921 44.6342 13.8812C45.0371 16.0195 42.6964 18.6661 39.8664 19.2894C36.6336 19.999 34.4848 17.9949 33.9859 13.7853C33.5255 9.8634 36.1348 6.97708 40.1734 6.95789C41.8138 6.94831 43.0034 7.22639 44.3656 7.96477C47.2051 9.47022 48.5673 12.1936 48.0397 15.2716C47.7136 17.1895 47.0516 18.6374 45.3633 21.1594C43.9531 23.2689 43.6653 23.7867 43.2912 24.8895C43.0801 25.532 42.9746 26.0402 42.9362 26.721L42.8787 27.6607L40.1351 27.7279C38.629 27.7662 36.9886 27.8334 36.4993 27.8621C36.0197 27.9005 35.6167 27.91 35.6167 27.9005C35.6167 27.8813 35.8374 27.6607 36.1156 27.421C37.4298 26.2415 37.9958 24.5251 37.5833 22.9621C37.353 22.0799 36.9789 21.4566 36.2499 20.7374C35.0411 19.5388 33.6598 19.0018 32.0193 19.0881C30.7914 19.1552 29.9376 19.4525 29.3717 20.0182C27.808 21.5813 28.3164 24.9182 30.283 25.9443C30.705 26.1648 30.8873 26.2032 31.5876 26.2032C32.2112 26.2032 32.5086 26.1553 32.8443 26.0019C33.4679 25.7142 33.9668 25.1676 34.1298 24.5826C34.4848 23.3457 33.6789 22.4155 32.2592 22.4155C31.5781 22.4155 31.3382 22.5114 31.4245 22.732C31.4629 22.8375 31.674 22.8854 32.2496 22.9046C33.1513 22.9525 33.487 23.1347 33.6789 23.71C33.8516 24.2278 33.6981 24.7073 33.1897 25.1676C32.2208 26.0594 30.6187 25.9443 29.7362 24.9087C29.1989 24.2758 28.9495 23.4895 28.9591 22.4635C28.9783 20.5744 29.9088 19.6922 32.0193 19.5676C34.9068 19.395 37.4393 21.7155 37.2188 24.3237C37.1132 25.5416 36.4609 26.6059 35.2042 27.5648L34.6286 28.0156L33.276 28.1786C28.4699 28.7635 25.8126 29.6553 25.4577 30.7868C25.1891 31.6498 25.0836 34.4211 25.2658 36.1375C25.7358 40.7402 27.5298 44.5375 30.6859 47.654C33.18 50.0992 36.058 51.7293 39.4059 52.5732C41.1902 53.0239 42.3606 53.1389 44.4998 53.0718C46.4184 53.0143 47.4065 52.8609 48.9798 52.3718C50.5243 51.8827 52.6539 50.7512 53.7667 49.8211L54.208 49.4567L54.726 49.6772C55.81 50.1567 56.7885 50.3581 58.0164 50.3581C59.3882 50.3581 60.0693 50.2046 61.2301 49.6293C61.8728 49.3033 62.2278 49.0348 62.9185 48.3539C63.6571 47.6252 63.8586 47.3567 64.2327 46.58C64.7987 45.4293 65.0002 44.6526 65.0002 43.5594C65.0002 41.1526 63.7339 39.321 61.3452 38.2758C60.4915 37.9114 60.5298 38.0361 60.7792 36.3676C60.9999 34.9197 61.1342 33.2224 61.1342 31.8991C61.1342 30.8731 61.115 30.7772 60.9231 30.595C60.6258 30.3169 59.8391 29.8662 59.2923 29.6649C59.0429 29.569 58.8223 29.4347 58.7935 29.358C58.7072 29.1375 57.863 28.658 57.2011 28.447C56.8557 28.3415 55.7621 28.1018 54.7644 27.9196C52.4717 27.5073 51.57 27.2676 50.7258 26.8648C49.5938 26.3278 49.0949 25.7429 48.6729 24.4963C48.2796 23.3456 48.1452 22.4059 48.2124 21.2456C48.2988 19.5483 48.7784 18.3018 49.7377 17.2757C50.6682 16.2785 51.8482 15.799 53.3639 15.7894C54.6877 15.7894 55.7046 16.2209 56.7982 17.2757C58.0357 18.4552 58.6976 19.9607 58.6208 21.3895C58.5633 22.3484 58.2947 22.9429 57.6328 23.5566C56.9325 24.2087 56.4528 24.3813 55.3784 24.3813C53.9299 24.3813 52.7499 23.8731 52.2031 23.0004C51.9633 22.6265 51.9249 22.4826 51.9249 21.8498C51.9345 20.6319 52.443 19.8936 53.3735 19.7689C54.3328 19.6347 54.87 20.1908 54.7644 21.1785C54.7261 21.61 54.7452 21.7347 54.8508 21.7826C55.081 21.8689 55.2825 21.4566 55.2825 20.9292C55.2729 19.3854 53.4981 18.7045 52.2415 19.7785C51.6467 20.2867 51.4165 20.9101 51.4644 21.936C51.4932 22.6552 51.5316 22.8278 51.781 23.2306C52.1263 23.7963 52.9897 24.41 53.7955 24.6689C54.2176 24.8128 54.6397 24.8607 55.3784 24.8607C56.2705 24.8607 56.4432 24.832 56.942 24.6018C57.6615 24.2662 58.4769 23.4799 58.8031 22.8087C59.0525 22.3196 59.0717 22.1758 59.0717 21.169C59.0717 20.2676 59.0333 19.9607 58.8511 19.5005C58.17 17.6786 56.5008 16.0292 54.7932 15.5019C54.4095 15.3772 53.9299 15.3196 53.3831 15.3196C51.733 15.3196 50.5723 15.7895 49.4691 16.8923C48.3659 17.995 47.8479 19.2895 47.7328 21.1882C47.6752 22.3005 47.7903 23.2786 48.1069 24.3334C48.8552 26.7786 50.1406 27.6128 54.2944 28.3224C54.8412 28.4183 55.2633 28.5046 55.2441 28.5238C55.2249 28.543 54.611 28.4758 53.8819 28.3704C51.5028 28.0156 47.8863 27.7375 44.6342 27.6608L43.7229 27.6416L43.7325 26.8265C43.7421 25.9156 43.9915 24.9471 44.452 24.0361C44.6054 23.7293 45.2194 22.7608 45.8141 21.869C47.1572 19.8841 47.4737 19.3375 47.9342 18.2731C48.4426 17.0744 48.74 15.9908 48.8743 14.8306C49.0758 13.0566 48.6729 11.3977 47.704 9.92098C46.3609 7.86895 43.9435 6.50728 41.1807 6.21001C40.1734 6.10453 40.1543 6.10445 39.2621 6.20993ZM55.695 28.6196C55.6279 28.6388 55.5128 28.6388 55.4552 28.6196C55.3881 28.5908 55.436 28.5717 55.5703 28.5717C55.7046 28.5717 55.7526 28.5908 55.695 28.6196ZM47.7616 28.7443C53.575 29.0703 57.6136 29.7991 59.6378 30.8826L60.2038 31.1895L60.1366 32.7717C60.079 34.3443 59.8872 36.2621 59.6857 37.1923C59.5802 37.6525 59.5706 37.6717 59.2828 37.6429C58.9279 37.6142 58.9471 37.7676 59.0718 35.6292L59.1485 34.306L58.3427 34.8525C55.7622 36.5785 52.2032 37.6813 47.6561 38.1512C45.9101 38.3334 41.3726 38.3046 39.4061 38.1032C34.552 37.6046 30.5517 36.6361 28.4412 35.4279C27.7217 35.0251 27.079 34.421 27.079 34.1621C27.079 34.0854 27.0406 34.0183 26.9927 34.0183C26.8584 34.0183 26.7624 35.3895 26.82 36.358C26.8872 37.3553 27.175 38.458 27.5395 39.1388C28.518 40.9416 32.4511 42.3512 38.3029 43.0032C40.2886 43.2238 46.5625 43.2525 48.4715 43.0512C49.9009 42.8978 52.1744 42.5238 53.1625 42.2745L53.8819 42.0922L54.2177 42.3704C54.6686 42.7251 55.695 43.1758 56.2418 43.2621C56.731 43.3389 57.4889 43.6553 57.4889 43.78C57.4889 43.8662 56.4816 45.5923 56.3473 45.7457C56.309 45.784 56.0883 45.7169 55.8485 45.6018C55.6087 45.4868 55.2249 45.3909 54.9659 45.3909C54.4575 45.3813 54.3808 45.4484 53.8148 46.3115C53.6613 46.5416 53.431 46.8772 53.3064 47.0594C53.0857 47.3471 53.0665 47.4622 53.1145 47.9224C53.1432 48.2101 53.1912 48.5841 53.2296 48.7471C53.2872 49.0444 53.2679 49.0635 52.3086 49.6964C49.4883 51.5567 46.3417 52.343 42.6389 52.1224C37.7752 51.8348 32.9307 49.2361 29.7842 45.2375C27.0406 41.7375 25.7455 36.9621 26.2251 32.1388C26.2827 31.5635 26.3786 31.0361 26.4362 30.969C26.4938 30.8923 26.7815 30.7197 27.0789 30.5662C28.7769 29.7128 32.7005 29.0511 37.8231 28.7539C39.7705 28.6388 45.8142 28.6388 47.7616 28.7443ZM56.5296 28.7443C56.7215 28.8018 56.7311 28.821 56.5776 28.821C56.4721 28.821 56.2802 28.7826 56.1459 28.7443C55.954 28.6867 55.9444 28.6676 56.0979 28.6676C56.2035 28.6676 56.3953 28.7059 56.5296 28.7443ZM27.5874 35.2264C28.8153 36.2717 32.5087 37.4319 36.5761 38.0456C41.9387 38.8511 47.4546 38.7648 51.8291 37.7868C54.1698 37.2689 56.5776 36.3292 58.1509 35.3223L58.8512 34.8717L58.7936 35.7155C58.7553 36.1757 58.7073 36.7703 58.6785 37.0388L58.621 37.5182L57.9398 37.7963C55.9157 38.621 53.5942 39.6278 53.5366 39.7045C53.5079 39.7621 53.4503 40.021 53.4215 40.2895C53.3735 40.7306 53.4119 41.0087 53.6038 41.6511C53.6614 41.8429 53.6038 41.8717 52.8172 42.0634C51.8099 42.2936 50.016 42.5812 48.4236 42.7634C46.6105 42.9648 40.2983 42.936 38.3509 42.7155C32.8061 42.0922 29.1032 40.8552 27.9616 39.2538C27.6738 38.8415 27.3573 37.9881 27.1846 37.1059C27.0695 36.5689 27.0406 34.8812 27.1366 34.8812C27.1654 34.8812 27.3763 35.0347 27.5874 35.2264ZM59.3883 38.4772C60.1941 38.6401 61.2206 39.0237 61.8058 39.3594C62.3718 39.695 63.3023 40.5868 63.5901 41.0662C65.3456 44.0676 63.3887 48.3251 59.7433 49.4183C58.8703 49.6772 57.1915 49.658 56.2035 49.38C55.1962 49.0923 54.0834 48.5649 53.9491 48.3251C53.7477 47.9415 53.8244 47.5388 54.1793 47.1361C54.3712 46.9347 54.5918 46.6183 54.6782 46.4361C54.7645 46.2539 54.8892 46.1005 54.9564 46.1005C55.0235 46.1005 55.3881 46.2443 55.7814 46.4265C56.6448 46.8196 57.3259 47.0594 57.6137 47.0594C58.1509 47.0497 59.0814 46.436 59.3692 45.8895C59.9448 44.7963 58.6785 43.1566 56.8654 42.6388C55.0523 42.121 54.5343 41.8429 54.2849 41.21C54.1218 40.7881 54.093 40.462 54.2081 40.2799C54.2561 40.2128 55.1674 39.7908 56.2419 39.3401C57.3163 38.8895 58.2564 38.4771 58.3427 38.4292C58.5442 38.3045 58.6209 38.3142 59.3883 38.4772ZM58.7072 45.0265C58.7936 45.3813 58.6305 45.7265 58.2564 45.9758C57.8822 46.2347 57.5465 46.3402 57.345 46.2539C57.2203 46.206 57.2491 46.1101 57.5273 45.6786C57.7096 45.3909 57.959 44.9689 58.0741 44.7484L58.2755 44.3361L58.4578 44.5567C58.5634 44.6813 58.6689 44.8922 58.7072 45.0265Z" fill="#CC3366"/>
<path fill-rule="evenodd" clip-rule="evenodd" d="M39.0795 29.6173C32.844 29.8187 28.4312 30.5187 27.587 31.4489C27.3664 31.6885 27.3952 32.3502 27.6542 32.8968C27.9516 33.5201 28.8437 34.3064 29.851 34.8242C35.674 37.8255 50.054 37.9311 56.2319 35.016C57.7955 34.2776 58.6781 33.5297 59.1194 32.5708C59.3976 31.9475 59.3688 31.6023 59.033 31.4009C57.4214 30.4516 52.9318 29.8283 46.1208 29.6077C42.9743 29.5023 42.5234 29.5022 39.0795 29.6173Z" fill="#CC3366"/>
</svg>
