<?xml version="1.0" encoding="UTF-8" standalone="no"?>
<svg
   version="1.1"
   width="684.34583"
   height="161.31599"
   id="svg24"
   viewBox="0 0 684.34583 161.31599"
   sodipodi:docname="da7b48756437d347e944ae083f6273b9.cdr"
   xmlns:inkscape="http://www.inkscape.org/namespaces/inkscape"
   xmlns:sodipodi="http://sodipodi.sourceforge.net/DTD/sodipodi-0.dtd"
   xmlns="http://www.w3.org/2000/svg"
   xmlns:svg="http://www.w3.org/2000/svg">
  <defs
     id="defs28" />
  <sodipodi:namedview
     id="namedview26"
     pagecolor="#ffffff"
     bordercolor="#666666"
     borderopacity="1.0"
     inkscape:pageshadow="2"
     inkscape:pageopacity="0.0"
     inkscape:pagecheckerboard="0" />
  <text
     x="174.7814"
     y="104.82346"
     id="text4"><tspan
       font-family="'Dancing Script'"
       font-size="61px"
       fill="#663300"
       id="tspan2">La Tienda del Café</tspan></text>
  <text
     x="270.9136"
     y="133.98175"
     id="text8"><tspan
       font-family="Arial"
       font-size="24.5px"
       fill="#663300"
       id="tspan6">¡ Un momento para compartir !</tspan></text>
  <g
     id="Layer1000"
     transform="translate(661.57031,-224.72024)">
    <g
       id="Layer1001">
      <path
         d="m -586.3737,224.9076 c -34.5844,2.3301 -63.8461,26.5636 -72.6516,60.1423 -2.6981,10.2772 -3.2867,22.443 -1.5943,33.0145 2.1339,13.5885 7.947,26.7354 16.6298,37.6993 1.0792,1.3491 3.8754,4.3905 6.2546,6.7697 5.4697,5.4697 10.081,9.0263 16.4091,12.7055 15.7224,9.0998 34.0202,12.5828 52.2934,9.9338 8.2905,-1.2019 17.3167,-4.1452 25.0921,-8.1433 3.4829,-1.7905 4.8319,-2.7962 4.8319,-3.6301 0,-0.9566 -1.0056,-2.0358 -1.8886,-2.0603 -0.2943,0 -2.2075,0.883 -4.2924,1.9377 -4.3659,2.281 -7.4074,3.5811 -11.5526,4.9546 -14.2507,4.7339 -30.1202,5.1508 -44.4445,1.1773 -17.8317,-4.9546 -33.0635,-15.9431 -43.4143,-31.2975 -0.883,-1.3 -1.5698,-2.4037 -1.5207,-2.4283 0.0981,-0.0981 6.2791,1.8641 22.1241,7.015 12.73,4.1451 17.4884,5.6414 17.8563,5.6414 0.3924,0 0.417,-1.1773 0.417,-15.9432 v -15.9431 l -4.0716,-12.6809 c -2.2566,-6.9905 -4.4151,-13.7847 -4.832,-15.1092 -0.4415,-1.4471 -0.9321,-2.5018 -1.1773,-2.6244 -0.8585,-0.4661 -5.2735,-0.7849 -8.6829,-0.6132 -13.9808,0.6377 -27.0051,3.8509 -31.9353,7.8735 -0.5641,0.466 -1.0547,0.8339 -1.1037,0.8339 -0.0491,0 0,-1.5207 0.0981,-3.3604 1.1528,-21.4373 11.7488,-41.8445 28.7957,-55.4084 1.2754,-1.0302 2.3791,-1.8151 2.4037,-1.766 0.0491,0.0245 0.1472,2.4037 0.1962,5.2734 l 0.1226,5.1754 -0.7603,0.1472 c -1.2019,0.2453 -3.2132,1.7415 -4.2924,3.1396 -1.0547,1.4226 -2.9678,5.0773 -2.9678,5.715 0,0.3434 0.3188,0.3924 2.3791,0.3679 3.2867,-0.0491 3.1886,-0.0735 3.4585,0.7114 0.3679,1.0302 1.8151,1.8395 3.0414,1.6679 1.1038,-0.1472 2.2811,-1.1038 2.5018,-2.0359 0.1472,-0.5887 0.1717,-0.5887 3.4585,-0.5887 h 3.3112 l -0.7603,-1.5452 c -1.7169,-3.3848 -4.1943,-6.2056 -6.2546,-7.1376 -0.9811,-0.417 -1.0057,-0.4661 -1.1773,-1.9132 -0.0736,-0.8339 -0.1472,-3.5566 -0.1472,-6.0584 l 0.0245,-4.5622 1.1529,-0.7603 c 2.3056,-1.5453 6.0584,-3.6302 9.2224,-5.1264 3.2132,-1.5453 6.2056,-2.7226 6.3773,-2.5509 0.049,0.0491 0.1471,8.5357 0.1716,18.8374 l 0.0981,18.7392 -0.9811,0.2944 c -3.3358,0.9811 -6.4999,4.415 -8.4621,9.1734 -0.3924,1.0056 -0.7358,1.8396 -0.7358,1.8886 0,0.0491 1.7169,0.0981 3.8019,0.0981 h 3.8018 v 0.6132 c 0,1.4717 1.4226,2.9679 3.0414,3.2377 1.8151,0.2943 3.8754,-1.1773 4.2188,-2.9924 l 0.1472,-0.8585 h 3.7773 c 2.0849,0 3.7773,-0.049 3.7773,-0.1226 0,-0.0736 -0.3433,-0.8339 -0.7603,-1.6679 -2.0849,-4.1207 -4.9546,-7.5301 -7.3829,-8.7565 -0.8339,-0.3924 -1.6433,-0.7358 -1.7905,-0.7358 -0.4415,0 -0.6132,-6.2791 -0.6132,-23.4241 v -15.2564 l 2.1584,-0.6377 c 7.8735,-2.3791 13.8582,-3.1886 23.3996,-3.2131 7.3583,-0.0246 7.4074,-0.0491 7.4074,-1.7415 0,-1.5453 -0.6131,-1.8641 -3.8263,-2.1094 -3.2622,-0.2208 -6.3772,-0.2208 -10.1791,0.0245 z m -36.6938,30.5617 c 1.2019,0.5641 3.4094,2.8452 4.415,4.5377 1.3981,2.3791 1.6925,2.1829 -3.2621,2.2075 -2.4283,0 -5.7886,0.0491 -7.5056,0.1226 -2.9188,0.1227 -3.1396,0.0981 -3.1396,-0.3188 0,-0.7849 1.7906,-3.5811 3.1887,-4.9792 2.0848,-2.1094 4.0716,-2.5999 6.3036,-1.5698 z m -0.1716,8.0697 c 0,0.2207 -0.2699,0.6622 -0.6132,0.9811 -0.4415,0.466 -0.8585,0.6131 -1.6924,0.6131 -0.9076,0 -1.1774,-0.1226 -1.717,-0.7603 -0.3434,-0.417 -0.5887,-0.8339 -0.515,-0.9566 0.0491,-0.0981 1.1037,-0.1962 2.3301,-0.2207 1.8641,-0.0491 2.2075,0.0245 2.2075,0.3434 z m 19.9656,9.3942 c 2.1094,1.1528 4.8075,4.2923 6.4999,7.579 l 0.5151,1.0547 h -9.8112 c -5.3961,0 -9.8111,-0.0736 -9.8111,-0.1962 0,-0.466 2.0603,-4.1207 3.0414,-5.4207 2.0113,-2.6244 3.9,-3.6546 6.6226,-3.6546 1.398,0 1.9622,0.1226 2.9433,0.6377 z m 0.1472,10.5714 c 0,0.7359 -1.1773,1.9377 -2.1585,2.2076 -1.5452,0.4415 -3.0659,-0.2453 -3.6301,-1.6189 -0.1962,-0.4415 -0.3434,-0.8584 -0.3434,-0.9321 0,-0.0735 1.3736,-0.1226 3.066,-0.1226 2.8698,0 3.066,0.0245 3.066,0.466 z m -10.9149,27.3731 c 2.4528,6.7452 4.4395,12.2885 4.415,12.3375 -0.0736,0.0736 -1.2264,-0.3188 -15.6979,-5.6414 -4.047,-1.4717 -8.0696,-2.9433 -8.9526,-3.2621 -0.883,-0.3189 -2.134,-0.8095 -2.8207,-1.0547 -0.6623,-0.2453 -4.9546,-1.8151 -9.5168,-3.4829 -4.5377,-1.6679 -8.2414,-3.1396 -8.1924,-3.2622 0.1717,-0.5151 4.3415,-2.649 7.2357,-3.7282 4.8811,-1.8151 12.3375,-3.4585 18.077,-4.0226 1.2264,-0.1227 4.1943,-0.1962 6.598,-0.1717 l 4.3905,0.0245 4.4641,12.264 z m -36.9144,1.1038 c 0.3434,0.0981 3.3112,1.2019 6.6225,2.4528 3.3113,1.2264 8.2659,3.066 11.0375,4.0962 20.8978,7.6772 23.6449,8.7074 23.9392,8.9281 0.3189,0.2698 0.4661,7.481 0.1472,7.6772 -0.1226,0.0736 -1.3736,-0.2943 -2.7716,-0.8339 -1.3981,-0.5151 -4.5867,-1.6925 -7.0886,-2.5755 -2.5018,-0.9075 -5.6904,-2.0603 -7.1131,-2.5754 -4.1207,-1.5207 -27.5448,-9.9829 -28.1335,-10.1546 -0.3924,-0.1226 -0.6377,-0.4905 -0.8339,-1.2018 -0.3679,-1.3491 -0.6622,-5.1264 -0.5151,-6.4509 l 0.0981,-1.0546 2.0113,0.7603 c 1.0793,0.3924 2.2566,0.8339 2.6,0.9321 z m 3.9244,12.2885 c 6.0584,2.2075 18.7147,6.8187 25.509,9.2961 1.4226,0.515 4.7584,1.7414 7.432,2.7225 l 4.8319,1.766 v 4.0471 c 0,3.7282 -0.0245,4.0226 -0.4169,3.9 -0.368,-0.0981 -40.888,-14.7903 -42.0408,-15.2564 -0.2453,-0.0735 -0.466,-0.3924 -0.5396,-0.6868 -0.0736,-0.2943 -0.4906,-1.6924 -0.883,-3.0905 -0.4415,-1.4471 -0.7604,-3.1396 -0.7604,-3.8754 0,-0.7113 0.0246,-1.3 0.0736,-1.3 0.0491,0 3.0905,1.1038 6.7942,2.4774 z m -0.2453,10.3998 c 10.1545,3.532 12.9752,4.5377 17.1695,5.9848 2.6244,0.9321 8.3394,2.9189 12.7054,4.4396 l 7.898,2.7716 v 3.8755 3.8754 l -7.1622,-2.4528 c -3.9489,-1.3736 -10.3753,-3.5811 -14.2997,-4.9301 -3.8999,-1.3491 -8.9281,-3.066 -11.1602,-3.8019 -3.2621,-1.1037 -4.1697,-1.4961 -4.7093,-2.1094 -1.349,-1.4961 -3.0414,-5.3225 -3.532,-7.9225 -0.1472,-0.8339 -0.1227,-0.9075 0.2943,-0.7358 0.2453,0.0981 1.5207,0.5642 2.7962,1.0057 z"
         style="fill:#cc3366;fill-rule:evenodd"
         id="path10" />
      <path
         d="m -625.5938,301.1893 c -0.883,0.3434 -1.5698,1.4471 -1.5698,2.5018 0,2.0848 2.5018,3.164 4.1207,1.7905 0.9565,-0.7849 1.1773,-1.766 0.6868,-2.9188 -0.2699,-0.6377 -0.6377,-1.0057 -1.2264,-1.251 -0.9811,-0.4169 -1.2754,-0.4169 -2.0113,-0.1226 z"
         style="fill:#cc3366;fill-rule:evenodd"
         id="path12" />
      <path
         d="m -637.8578,304.1326 c -0.883,0.3434 -1.5698,1.4471 -1.5698,2.5018 0,2.1094 2.4774,3.1886 4.1207,1.7905 1.4226,-1.1773 1.1283,-3.4829 -0.5396,-4.1697 -0.9811,-0.4169 -1.2754,-0.4169 -2.0113,-0.1226 z"
         style="fill:#cc3366;fill-rule:evenodd"
         id="path14" />
      <path
         d="m -623.8524,308.4986 c -2.5509,0.8339 -2.8206,4.1942 -0.4169,5.3471 2.5263,1.2018 5.1753,-1.9868 3.4584,-4.1697 -0.883,-1.1038 -1.9376,-1.5208 -3.0414,-1.1774 z"
         style="fill:#cc3366;fill-rule:evenodd"
         id="path16" />
      <path
         d="m -561.1837,240.6054 c -4.2678,0.5151 -7.7998,2.1585 -10.6941,5.0282 -2.4774,2.4528 -3.7773,4.9056 -4.5377,8.5848 -0.466,2.232 -0.4906,2.698 -0.2453,5.4452 0.368,3.8999 1.0057,6.2791 2.3792,9.0998 3.4339,7.015 10.5469,9.4188 18.2978,6.2056 6.647,-2.7962 11.4299,-9.5414 10.4979,-14.7903 -0.3679,-2.0113 -0.8585,-3.2132 -2.1094,-5.1018 -1.8887,-2.8698 -3.532,-4.3659 -6.3772,-5.6905 -3.1151,-1.4716 -6.6961,-1.1773 -9.5414,0.7849 -1.8641,1.3 -3.5075,3.8509 -4.0226,6.3283 -0.3924,1.8395 -0.3434,2.7225 0.2207,4.5376 0.5887,1.8641 2.0849,3.7282 3.9,4.783 0.9566,0.5641 1.3981,0.6622 2.9679,0.6622 1.5207,0 2.1094,-0.1226 3.2621,-0.7113 2.0359,-0.9811 2.7472,-2.134 2.7472,-4.415 0,-2.0849 -0.8585,-4.1452 -1.7661,-4.2679 -0.883,-0.1226 -1.0792,0.6378 -0.5641,2.1585 1.0792,3.0905 0.1717,4.7829 -2.8452,5.2734 -1.5944,0.2453 -2.9433,-0.2452 -4.2924,-1.5943 -2.8452,-2.8452 -2.4037,-7.5546 0.9811,-10.6206 1.4962,-1.3245 2.9924,-1.8886 5.0773,-1.8886 4.2188,0 9.5168,4.9791 10.3998,9.8111 1.0302,5.4697 -4.9546,12.2394 -12.1904,13.8337 -8.2658,1.8151 -13.7601,-3.3112 -15.0356,-14.0789 -1.1773,-10.0319 5.4943,-17.4148 15.8205,-17.4639 4.1943,-0.0245 7.2357,0.6868 10.7187,2.5755 7.2603,3.8508 10.7432,10.8168 9.3942,18.6902 -0.8339,4.9056 -2.5264,8.6093 -6.8433,15.0602 -3.6055,5.3961 -4.3414,6.7206 -5.298,9.5413 -0.5396,1.6434 -0.8094,2.9434 -0.9075,4.6849 l -0.1472,2.4037 -7.015,0.1717 c -3.8508,0.0981 -8.0451,0.2698 -9.296,0.3434 -1.2264,0.0981 -2.2566,0.1226 -2.2566,0.0981 0,-0.0491 0.5641,-0.6132 1.2754,-1.2264 3.3603,-3.017 4.8074,-7.4074 3.7527,-11.4055 -0.5887,-2.2566 -1.5452,-3.8509 -3.4093,-5.6904 -3.0905,-3.066 -6.6225,-4.4396 -10.8168,-4.2188 -3.1396,0.1716 -5.3226,0.932 -6.7697,2.3791 -3.9981,3.9981 -2.6981,12.5337 2.3301,15.1583 1.0792,0.5641 1.5453,0.6622 3.3358,0.6622 1.5944,0 2.3547,-0.1226 3.2132,-0.515 1.5943,-0.7358 2.8698,-2.134 3.2867,-3.6302 0.9076,-3.164 -1.1528,-5.5433 -4.7829,-5.5433 -1.7415,0 -2.3547,0.2453 -2.134,0.8095 0.0981,0.2698 0.6377,0.3924 2.1094,0.4415 2.3056,0.1226 3.1641,0.5887 3.6547,2.0603 0.4415,1.3245 0.0491,2.5509 -1.251,3.7282 -2.4773,2.2811 -6.5734,1.9868 -8.83,-0.6622 -1.3736,-1.6189 -2.0113,-3.6302 -1.9868,-6.2546 0.0491,-4.832 2.4283,-7.0886 7.8244,-7.4074 7.3829,-0.4415 13.8582,5.4942 13.2942,12.1658 -0.2699,3.1151 -1.9377,5.8376 -5.1509,8.2904 l -1.4717,1.1529 -3.4584,0.4169 c -12.2885,1.4962 -19.0827,3.7773 -19.9902,6.6716 -0.6868,2.2075 -0.9566,9.2961 -0.4906,13.6866 1.2018,11.7733 5.7886,21.4864 13.8582,29.4579 6.3772,6.2546 13.7356,10.4244 22.2958,12.5828 4.5622,1.1529 7.5546,1.4472 13.0243,1.2755 4.9056,-0.1472 7.432,-0.5396 11.4545,-1.7906 3.949,-1.2509 9.3942,-4.1452 12.2394,-6.5244 l 1.1283,-0.9321 1.3245,0.5641 c 2.7717,1.2264 5.2735,1.7415 8.4131,1.7415 3.5075,0 5.2489,-0.3924 8.2168,-1.8641 1.6434,-0.8339 2.551,-1.5207 4.317,-3.2622 1.8886,-1.8641 2.4037,-2.5509 3.3603,-4.5376 1.4472,-2.9434 1.9622,-4.9301 1.9622,-7.7263 0,-6.1565 -3.2377,-10.8414 -9.3451,-13.5149 -2.1829,-0.9321 -2.0848,-0.6132 -1.4471,-4.8811 0.5641,-3.7036 0.9075,-8.0451 0.9075,-11.4299 0,-2.6245 -0.0491,-2.8698 -0.5396,-3.3358 -0.7603,-0.7114 -2.7716,-1.8641 -4.1697,-2.3792 -0.6377,-0.2453 -1.2019,-0.5887 -1.2754,-0.7849 -0.2208,-0.5641 -2.3792,-1.7905 -4.0716,-2.3302 -0.883,-0.2698 -3.6792,-0.883 -6.2301,-1.349 -5.8622,-1.0547 -8.1678,-1.6679 -10.3262,-2.6981 -2.8944,-1.3736 -4.1698,-2.8698 -5.249,-6.0584 -1.0056,-2.9433 -1.349,-5.3471 -1.1773,-8.3149 0.2208,-4.3415 1.4472,-7.5301 3.9,-10.1546 2.3791,-2.5509 5.3961,-3.7773 9.2715,-3.8018 3.3848,0 5.9848,1.1037 8.7809,3.8018 3.1641,3.017 4.8566,6.8678 4.6603,10.5225 -0.1471,2.4528 -0.8339,3.9735 -2.5263,5.5433 -1.7906,1.6679 -3.017,2.1094 -5.7641,2.1094 -3.7037,0 -6.7206,-1.2999 -8.1187,-3.532 -0.6131,-0.9566 -0.7113,-1.3245 -0.7113,-2.9433 0.0245,-3.1151 1.3245,-5.0037 3.7037,-5.3226 2.4528,-0.3434 3.8263,1.0792 3.5565,3.6056 -0.0981,1.1037 -0.0491,1.4226 0.2208,1.5452 0.5887,0.2208 1.1037,-0.8339 1.1037,-2.1829 -0.0245,-3.949 -4.5622,-5.6905 -7.7753,-2.9433 -1.5208,1.2999 -2.1094,2.8943 -1.9868,5.5187 0.0736,1.8396 0.1717,2.2811 0.8094,3.3113 0.883,1.4471 3.0906,3.0169 5.1509,3.6792 1.0792,0.3679 2.1584,0.4906 4.0471,0.4906 2.281,0 2.7225,-0.0736 3.998,-0.6623 1.8396,-0.8584 3.9244,-2.8697 4.7584,-4.5866 0.6377,-1.251 0.6868,-1.6189 0.6868,-4.1943 0,-2.3056 -0.0981,-3.0905 -0.5641,-4.2678 -1.7415,-4.6603 -6.0094,-8.8792 -10.3753,-10.2281 -0.9811,-0.3189 -2.2075,-0.4661 -3.6056,-0.4661 -4.2188,0 -7.1867,1.2019 -10.0073,4.0226 -2.8207,2.8207 -4.1452,6.132 -4.4396,10.9885 -0.1472,2.8452 0.1472,5.3471 0.9566,8.0451 1.9132,6.2546 5.1999,8.3885 15.8205,10.2036 1.398,0.2453 2.4773,0.4661 2.4282,0.5151 -0.0491,0.0491 -1.6188,-0.1227 -3.4829,-0.3924 -6.0829,-0.9076 -15.3299,-1.6188 -23.6449,-1.8151 l -2.3301,-0.0491 0.0245,-2.0849 c 0.0245,-2.3301 0.6623,-4.8074 1.8396,-7.1375 0.3924,-0.7849 1.9622,-3.2622 3.4829,-5.5434 3.4339,-5.0772 4.2433,-6.4753 5.4207,-9.1979 1.2999,-3.066 2.0603,-5.8377 2.4037,-8.8055 0.515,-4.5377 -0.5151,-8.781 -2.9924,-12.5583 -3.4339,-5.2489 -9.615,-8.7319 -16.679,-9.4923 -2.5754,-0.2698 -2.6245,-0.2698 -4.9056,0 z m 42.0163,57.3216 c -0.1717,0.0491 -0.466,0.0491 -0.6132,0 -0.1716,-0.0736 -0.0491,-0.1226 0.2943,-0.1226 0.3434,0 0.4661,0.049 0.3189,0.1226 z m -20.2846,0.3189 c 14.8639,0.834 25.1901,2.6981 30.3655,5.4697 l 1.4472,0.7849 -0.1717,4.0471 c -0.1472,4.0226 -0.6377,8.9281 -1.1528,11.3074 -0.2699,1.1773 -0.2944,1.2264 -1.0302,1.1528 -0.9076,-0.0735 -0.8585,0.3189 -0.5396,-5.1508 l 0.1962,-3.3848 -2.0604,1.398 c -6.5979,4.415 -15.6978,7.2357 -27.324,8.4376 -4.4641,0.4661 -16.0657,0.3925 -21.0939,-0.1226 -12.4112,-1.2754 -22.6393,-3.7528 -28.0354,-6.8433 -1.8396,-1.0302 -3.4829,-2.5754 -3.4829,-3.2377 0,-0.1962 -0.0981,-0.3679 -0.2208,-0.3679 -0.3434,0 -0.5887,3.5074 -0.4415,5.9848 0.1717,2.5509 0.9076,5.3716 1.8396,7.1131 2.5018,4.6112 12.5582,8.2169 27.5203,9.8847 5.0773,0.5642 21.1185,0.6377 25.9995,0.1227 3.6547,-0.3925 9.4677,-1.3491 11.9941,-1.9868 l 1.8396,-0.4661 0.8584,0.7114 c 1.1529,0.9075 3.7773,2.0603 5.1754,2.2811 1.2509,0.1962 3.1886,1.0056 3.1886,1.3245 0,0.2207 -2.5754,4.6357 -2.9188,5.0281 -0.0981,0.0981 -0.6623,-0.0735 -1.2755,-0.3679 -0.6131,-0.2943 -1.5943,-0.5396 -2.2565,-0.5396 -1.3,-0.0245 -1.4962,0.1472 -2.9434,2.3547 -0.3924,0.5887 -0.9811,1.4471 -1.2999,1.9132 -0.5642,0.7358 -0.6132,1.0302 -0.4906,2.2075 0.0735,0.7358 0.1962,1.6924 0.2943,2.1094 0.1472,0.7604 0.0981,0.8094 -2.3547,2.4283 -7.2112,4.7584 -15.2564,6.7697 -24.7241,6.2055 -12.4356,-0.7358 -24.8222,-7.3829 -32.8673,-17.6109 -7.015,-8.9527 -10.3262,-21.1676 -9.0999,-33.5051 0.1472,-1.4717 0.3924,-2.8207 0.5396,-2.9924 0.1472,-0.1962 0.883,-0.6377 1.6434,-1.0302 4.3414,-2.183 14.3733,-3.8754 27.4712,-4.6358 4.9791,-0.2943 20.4317,-0.2943 25.4109,-0.0245 z m 22.4185,0 c 0.4906,0.1472 0.515,0.1962 0.1226,0.1962 -0.2698,0 -0.7603,-0.0981 -1.1037,-0.1962 -0.4906,-0.1472 -0.5151,-0.1962 -0.1227,-0.1962 0.2699,0 0.7604,0.0981 1.1038,0.1962 z m -74.0006,16.5808 c 3.1396,2.6736 12.5828,5.6414 22.9827,7.2112 13.7111,2.0604 27.8146,1.8396 38.9993,-0.6622 5.9848,-1.3245 12.1413,-3.7282 16.1639,-6.3037 l 1.7905,-1.1528 -0.1471,2.1584 c -0.0981,1.1773 -0.2208,2.6981 -0.2944,3.3848 l -0.1471,1.2264 -1.7415,0.7114 c -5.1754,2.1094 -11.1111,4.6848 -11.2583,4.881 -0.0736,0.1472 -0.2207,0.8095 -0.2943,1.4962 -0.1227,1.1283 -0.0246,1.8396 0.466,3.4829 0.1472,0.4906 0,0.5642 -2.0113,1.0547 -2.5754,0.5887 -7.1621,1.3245 -11.2337,1.7905 -4.6358,0.5151 -20.7751,0.4415 -25.7543,-0.1226 -14.1771,-1.5944 -23.6449,-4.7584 -26.5637,-8.8546 -0.7358,-1.0547 -1.5452,-3.2377 -1.9867,-5.4942 -0.2943,-1.3736 -0.368,-5.6905 -0.1227,-5.6905 0.0736,0 0.6132,0.3925 1.1529,0.883 z m 81.3099,8.315 c 2.0603,0.4169 4.6849,1.3981 6.181,2.2566 1.4472,0.8584 3.8263,3.1396 4.5622,4.3659 4.4886,7.6772 -0.515,18.5676 -9.8357,21.3638 -2.232,0.6622 -6.5244,0.6131 -9.0507,-0.0981 -2.5755,-0.7359 -5.4207,-2.0849 -5.7641,-2.6981 -0.5151,-0.9812 -0.3189,-2.0113 0.5887,-3.0415 0.4906,-0.515 1.0547,-1.3245 1.2754,-1.7905 0.2208,-0.4661 0.5396,-0.8585 0.7113,-0.8585 0.1717,0 1.1038,0.368 2.1095,0.8339 2.2075,1.0057 3.9489,1.6189 4.6848,1.6189 1.3736,-0.0246 3.7528,-1.5944 4.4886,-2.9925 1.4717,-2.7962 -1.766,-6.9904 -6.4018,-8.3149 -4.6358,-1.3245 -5.9603,-2.0359 -6.598,-3.6547 -0.4169,-1.0792 -0.4906,-1.9132 -0.1962,-2.3792 0.1227,-0.1716 2.4528,-1.2509 5.1999,-2.4037 2.7472,-1.1528 5.1509,-2.2075 5.3716,-2.3301 0.5151,-0.3189 0.7114,-0.2943 2.6736,0.1226 z m -1.7415,16.7525 c 0.2208,0.9076 -0.1962,1.7906 -1.1528,2.4283 -0.9566,0.6622 -1.8151,0.9321 -2.3302,0.7113 -0.3188,-0.1226 -0.2453,-0.3679 0.4661,-1.4717 0.466,-0.7358 1.1037,-1.8151 1.3981,-2.3792 l 0.515,-1.0546 0.4661,0.5641 c 0.2698,0.3189 0.5396,0.8585 0.6377,1.2019 z"
         style="fill:#cc3366;fill-rule:evenodd"
         id="path18" />
      <path
         d="m -561.6497,300.4779 c -15.9431,0.5151 -27.2259,2.3056 -29.3844,4.6849 -0.5641,0.6131 -0.4905,2.3056 0.1717,3.7036 0.7604,1.5944 3.0414,3.6056 5.6169,4.9301 14.8884,7.6772 51.6557,7.9471 67.4516,0.4906 3.9981,-1.8886 6.2546,-3.8018 7.3829,-6.2546 0.7113,-1.5943 0.6377,-2.4773 -0.2207,-2.9924 -4.1208,-2.4282 -15.5998,-4.0226 -33.0146,-4.5867 -8.0451,-0.2698 -9.1979,-0.2698 -18.0034,0.0246 z"
         style="fill:#cc3366;fill-rule:evenodd"
         id="path20" />
    </g>
  </g>
</svg>
