<svg width="101" height="100" viewBox="0 0 101 100" fill="none" xmlns="http://www.w3.org/2000/svg">
<path d="M72.2308 79.6875C72.2557 79.6685 72.2862 79.6582 72.3176 79.6582C72.349 79.6582 72.3795 79.6685 72.4044 79.6875L77.77 84.8594C77.77 84.8594 77.9594 84.8594 77.9594 84.75V15.1562H23.0407V84.625C23.0382 84.6495 23.0431 84.6743 23.0548 84.696C23.0666 84.7178 23.0845 84.7357 23.1064 84.7473C23.1284 84.759 23.1533 84.764 23.1781 84.7617C23.2029 84.7594 23.2265 84.7499 23.2458 84.7344L30.158 79.5937C30.1804 79.576 30.2082 79.5663 30.2369 79.5663C30.2656 79.5663 30.2934 79.576 30.3158 79.5937L37.4647 84.7969C37.4882 84.8189 37.5192 84.8311 37.5515 84.8311C37.5838 84.8311 37.6149 84.8189 37.6383 84.7969L43.9508 79.5937C43.9508 79.5937 44.0613 79.5937 44.1244 79.5937L51.2575 84.7812C51.281 84.8032 51.312 84.8155 51.3443 84.8155C51.3766 84.8155 51.4077 84.8032 51.4311 84.7812L58.0592 79.6875C58.0853 79.6644 58.119 79.6517 58.1539 79.6517C58.1889 79.6517 58.2226 79.6644 58.2486 79.6875L65.366 84.8594C65.392 84.8824 65.4257 84.8952 65.4606 84.8952C65.4956 84.8952 65.5293 84.8824 65.5553 84.8594L71.8678 79.7031" stroke="#CC3366" stroke-width="5" stroke-linecap="round"/>
<path d="M29.5425 48.6094H50.5315" stroke="#CC3366" stroke-width="5" stroke-linecap="round"/>
<path d="M29.5425 40.2656H54.7451" stroke="#CC3366" stroke-width="5" stroke-linecap="round"/>
<path d="M29.5425 23.4375H56.8914" stroke="#CC3366" stroke-width="5" stroke-linecap="round"/>
<path d="M29.5425 31.4219H52.3148" stroke="#CC3366" stroke-width="5" stroke-linecap="round"/>
<path d="M64.719 48.3594H71.4576" stroke="#CC3366" stroke-width="5" stroke-linecap="round"/>
<path d="M29.5425 57.5156H54.7451" stroke="#CC3366" stroke-width="5" stroke-linecap="round"/>
<path d="M66.0603 57.2812H71.4575" stroke="#CC3366" stroke-width="5" stroke-linecap="round"/>
<path d="M64.719 66.5H71.4576" stroke="#CC3366" stroke-width="5" stroke-linecap="round"/>
<path d="M64.719 40.0156H71.4576" stroke="#CC3366" stroke-width="5" stroke-linecap="round"/>
<path d="M66.0603 31.4219H71.4575" stroke="#CC3366" stroke-width="5" stroke-linecap="round"/>
<path d="M64.719 23.4375H71.4576" stroke="#CC3366" stroke-width="5" stroke-linecap="round"/>
</svg>
