<svg width="90" height="92" viewBox="0 0 90 92" fill="none" xmlns="http://www.w3.org/2000/svg">
<path d="M69.3441 81.0614C63.3629 74.2194 54.6726 69.914 45 69.914C35.3276 69.914 26.6363 74.2194 20.6549 81.0614M45 89.0323C21.8041 89.0323 3 69.7735 3 46.0161C3 22.259 21.8041 3 45 3C68.1961 3 87 22.259 87 46.0161C87 69.7735 68.1961 89.0323 45 89.0323ZM45 55.5753C37.2678 55.5753 31 49.1558 31 41.2366C31 33.3175 37.2678 26.8978 45 26.8978C52.7322 26.8978 59 33.3175 59 41.2366C59 49.1558 52.7322 55.5753 45 55.5753Z" stroke="#CC3360" stroke-width="5" stroke-linecap="round" stroke-linejoin="round"/>
</svg>
