<svg width="61" height="57" viewBox="0 0 61 57" fill="none" xmlns="http://www.w3.org/2000/svg">
<path d="M30.8207 7.13121e-06C29.0838 0.00209085 27.4189 0.663718 26.1921 1.83938C24.9652 3.01504 24.277 4.60847 24.2788 6.26924C24.2803 7.93 24.9716 9.52218 26.2008 10.6956C27.4299 11.8691 29.0961 12.5277 30.8331 12.5267C32.5699 12.5258 34.2352 11.8655 35.4629 10.6909C36.6906 9.5163 37.3802 7.92357 37.38 6.26295V6.25116C37.3767 4.59053 36.6838 2.99912 35.4536 1.82687C34.2234 0.654623 32.5575 -0.00249707 30.8207 7.13121e-06ZM9.21096 14.4668C8.05993 14.4731 6.88917 14.5344 5.79158 14.7985C5.06807 14.9738 4.36841 15.2623 3.91375 15.7104C3.34317 16.2717 3.27 17.0334 3.54871 17.6836C3.79701 18.2574 4.46625 18.6866 5.21195 18.9327C6.81517 19.4578 8.5968 19.5694 10.2831 19.8996C10.5938 19.9727 10.9375 20.0529 11.1299 20.2557C11.3297 20.497 11.2121 20.8296 10.8841 20.9813C10.3365 21.2478 9.63684 21.2494 8.99884 21.2407C8.41675 21.2171 7.77711 21.1707 7.3134 20.8917C6.97303 20.6912 6.91301 20.35 6.98947 20.0568H3.23218C3.22231 20.604 3.3333 21.1755 3.75261 21.6448C4.10285 22.0457 4.6685 22.3287 5.2769 22.4985C6.24952 22.772 7.30272 22.8546 8.33947 22.8797C9.74619 22.9025 11.1809 22.8625 12.5325 22.5574C13.3382 22.3696 14.1292 22.0661 14.6455 21.574C15.5605 20.6951 15.3451 19.3029 14.1275 18.6198C13.5216 18.2818 12.7956 18.0727 12.0557 17.9375C10.9729 17.7229 9.87034 17.5656 8.77357 17.3927C8.38797 17.3212 7.981 17.2575 7.65707 17.0838C7.31834 16.91 7.29121 16.4997 7.63652 16.3212C8.08295 16.0799 8.67738 16.0815 9.21178 16.0815C9.77497 16.0909 10.3875 16.1247 10.8512 16.377C10.963 16.4353 11.0562 16.5215 11.1208 16.6264C11.1854 16.7314 11.2189 16.8511 11.2179 16.9729L14.7902 16.9651C14.7762 16.5327 14.6923 16.0823 14.3618 15.7088C13.9779 15.249 13.3029 14.9589 12.6081 14.7891C11.5188 14.5258 10.3546 14.4715 9.21096 14.4668ZM16.9607 14.7246L16.959 22.886H27.3759V21.1071H20.7796V19.5231H26.6622V17.7834H20.7796L20.7788 16.4847L27.1374 16.4832L27.1333 14.7246H16.9607ZM34.1234 14.7278L29.2956 14.7286L29.2948 22.89H32.9518L32.9501 17.3982L37.9596 22.886L42.9789 22.8908L42.9773 14.7286L39.317 14.7294L39.3211 20.1818L34.1234 14.7278ZM49.4995 14.7411C49.4995 14.7411 45.5572 20.1857 43.5766 22.9041H47.4153L48.3361 21.4317H54.2672L55.1272 22.9049L59.391 22.9041L53.7402 14.7427L49.4995 14.7411ZM51.4184 16.6891L53.2387 19.6457L49.4757 19.6512L51.4184 16.6891ZM0.223877 25.1948L0.256764 29.6364L17.6209 29.5782C18.5064 29.7598 19.0202 30.3116 18.8393 31.5639L8.15941 49.4393L11.6388 52.5483L28.1791 25.1941L0.223877 25.1948ZM33.3571 25.2326L49.6228 52.4705L53.2173 49.3811L42.4141 31.5529C42.2332 30.2959 42.7471 29.7386 43.6334 29.5562L60.9999 29.6151L60.995 25.2459L33.3571 25.2326ZM30.6127 29.7393L15.3591 54.7738L19.4107 56.6613L29.5891 40.2127C29.9402 39.9383 30.2954 39.7929 30.6497 39.7788C31.0246 39.7654 31.4037 39.8975 31.7835 40.1812L41.9381 56.6801L46.1171 54.5954L30.6127 29.7393Z" fill="black"/>
</svg>
